<?xml version="1.0" encoding="UTF-8"?><svg id="a" xmlns="http://www.w3.org/2000/svg" viewBox="0 0 372.26 588.45"><defs><style>.b{fill:#ffc200;stroke:#000;stroke-miterlimit:10;stroke-width:4px;}</style></defs><path class="b" d="M362.01,495.15H97.93c-2.25,4.5-3.96,7.93-5.68,11.36-2.49,4.95,.74,8.28,3.46,11.59,4.81,5.86,10.64,11.08,14.43,17.52,2.36,4.01,1.95,9.74,2.44,14.73,.24,2.4-.97,5.04-.37,7.27,1.54,5.78-.33,10.98-4.39,14.01-7.47,5.56-15.82,9.97-23.96,14.58-1.12,.63-3.22-.08-4.73-.58-10.39-3.5-15.95-12.37-17.55-23.09-1.52-10.23-5.24-20.14-8.15-30.79-9.08,4.66-9.43,12.69-10.87,19.94-.88,4.43-.31,9.17-1.38,13.53-.94,3.83-2.75,7.69-5.07,10.89-2.44,3.37-5.94,3.82-8.49-.35-2.8-4.58-7.14-4.93-11.36-3.57-4.7,1.52-5.93-.03-6.11-4.39-1.2-28.5-2.59-57-3.75-85.5-1.34-32.84-2.51-65.68-3.74-98.53-.24-6.4-.49-12.79-.58-19.19-.03-2.25-.35-4.93,.7-6.69,5.73-9.6,4.73-20.43,5.78-30.77,5.2-51.17,10-102.39,14.96-153.58,4.9-50.58,10-101.14,14.43-151.76,.41-4.72-3.37-9.81-5.22-14.73-.42-1.11-.87-2.2-1.65-4.16,2.47-.29,4.39-.72,6.3-.72,86.07-.04,172.14,.01,258.2-.16,4.86,0,6.49,1.76,7.19,6.1,7.06,43.6,14.22,87.18,21.35,130.77,6.76,41.35,13.03,82.79,20.63,123.98,1.97,10.66,7.22,21.05,12.6,30.65,6.85,12.23,11.6,24.26,7.71,38.43-.32,1.16,.39,3.2,1.33,4.01,4.27,3.71,5.22,9.42,1.75,13.77-1.4,1.76-3.03,3.49-4.9,4.71-5.45,3.55-7.33,8.37-6.94,14.79,.2,3.31-1.29,6.71-1.93,10.09-1.46,7.68-3.38,15.32-4.04,23.07-.26,3.06,1.89,6.68,3.77,9.5,6.57,9.87,7.99,19.8,3.3,31.07-3.2,7.69-5.15,16-6.74,24.21-.64,3.3,.58,7.34,2.01,10.58,2.46,5.59,5.75,10.83,9.34,17.4Z"/></svg>